<svg width="69" height="72" viewBox="0 0 69 72" fill="none" xmlns="http://www.w3.org/2000/svg">
<g filter="url(#filter0_d)">
<ellipse cx="34.2857" cy="32" rx="30.2857" ry="32" fill="#3CB1FF"/>
</g>
<path d="M50.2929 32.7071C50.6834 32.3166 50.6834 31.6834 50.2929 31.2929L48.7102 29.7102C48.3199 29.3199 47.6873 29.3197 47.2966 29.7096L37.8315 39.1578C37.2013 39.7869 36.125 39.3406 36.125 38.4501V16C36.125 15.4477 35.6773 15 35.125 15H32.875C32.3227 15 31.875 15.4477 31.875 16V38.444C31.875 39.3353 30.797 39.7813 30.1673 39.1505L20.7246 29.6909C20.3342 29.2998 19.7005 29.2995 19.3098 29.6902L17.7071 31.2929C17.3166 31.6834 17.3166 32.3166 17.7071 32.7071L33.2929 48.2929C33.6834 48.6834 34.3166 48.6834 34.7071 48.2929L50.2929 32.7071Z" fill="white"/>
<defs>
<filter id="filter0_d" x="0" y="0" width="68.5714" height="72" filterUnits="userSpaceOnUse" color-interpolation-filters="sRGB">
<feFlood flood-opacity="0" result="BackgroundImageFix"/>
<feColorMatrix in="SourceAlpha" type="matrix" values="0 0 0 0 0 0 0 0 0 0 0 0 0 0 0 0 0 0 127 0"/>
<feOffset dy="4"/>
<feGaussianBlur stdDeviation="2"/>
<feColorMatrix type="matrix" values="0 0 0 0 0 0 0 0 0 0.6 0 0 0 0 1 0 0 0 0.4 0"/>
<feBlend mode="normal" in2="BackgroundImageFix" result="effect1_dropShadow"/>
<feBlend mode="normal" in="SourceGraphic" in2="effect1_dropShadow" result="shape"/>
</filter>
</defs>
</svg>
